<?xml version="1.0" encoding="iso-8859-1"?>
<!-- Generator: Adobe Illustrator 19.0.0, SVG Export Plug-In . SVG Version: 6.00 Build 0)  -->
<svg version="1.1" id="Layer_1" xmlns="http://www.w3.org/2000/svg" xmlns:xlink="http://www.w3.org/1999/xlink" x="0px" y="0px"
	 viewBox="0 0 512 512" style="enable-background:new 0 0 512 512;" xml:space="preserve">
<path style="fill:#A39B8D;" d="M406.261,155.826h-11.13V11.13h11.13V155.826z M261.565,11.13h-11.13v144.696h11.13V11.13z
	 M116.87,11.13h-11.13v144.696h11.13V11.13z"/>
<path style="fill:#F7F2CD;" d="M467.478,278.261H333.913l55.652-133.565h22.261L467.478,278.261z M267.13,144.696H244.87
	l-55.652,133.565h133.565L267.13,144.696z M122.435,144.696h-22.261L44.522,278.261h133.565L122.435,144.696z"/>
<path style="fill:#FFFCE3;" d="M446.609,278.261h-91.826l40.812-122.435h10.203L446.609,278.261z M261.101,155.826h-10.203
	l-40.811,122.435h91.826L261.101,155.826z M116.405,155.826h-10.203L65.391,278.261h91.826L116.405,155.826z"/>
<path style="fill:#F5D470;" d="M369.212,155.826c-1.231-3.483-1.908-7.227-1.908-11.13c0-18.442,14.949-33.391,33.391-33.391
	s33.391,14.949,33.391,33.391c0,3.903-0.677,7.648-1.908,11.13H369.212z M287.484,155.826c1.231-3.483,1.908-7.227,1.908-11.13
	c0-18.442-14.949-33.391-33.391-33.391s-33.391,14.949-33.391,33.391c0,3.903,0.677,7.648,1.908,11.13H287.484z M142.788,155.826
	c1.231-3.483,1.908-7.227,1.908-11.13c0-18.442-14.949-33.391-33.391-33.391s-33.391,14.949-33.391,33.391
	c0,3.903,0.677,7.648,1.908,11.13H142.788z"/>
<path style="fill:#D19B3F;" d="M434.087,144.696c0,3.903-0.677,7.648-1.908,11.13h-20.353v-11.13c0-6.147-4.983-11.13-11.13-11.13
	c-6.147,0-11.13,4.983-11.13,11.13v11.13h-20.353c-1.231-3.483-1.908-7.227-1.908-11.13c0-18.442,14.949-33.391,33.391-33.391
	S434.087,126.254,434.087,144.696z M256,111.304c-18.442,0-33.391,14.949-33.391,33.391c0,3.903,0.677,7.648,1.908,11.13h20.353
	v-11.13c0-6.147,4.983-11.13,11.13-11.13s11.13,4.983,11.13,11.13v11.13h20.353c1.231-3.483,1.908-7.227,1.908-11.13
	C289.391,126.254,274.442,111.304,256,111.304z M111.304,111.304c-18.442,0-33.391,14.949-33.391,33.391
	c0,3.903,0.677,7.648,1.908,11.13h20.353v-11.13c0-6.147,4.983-11.13,11.13-11.13c6.147,0,11.13,4.983,11.13,11.13v11.13h20.353
	c1.231-3.483,1.908-7.227,1.908-11.13C144.696,126.254,129.746,111.304,111.304,111.304z"/>
<path style="fill:#57544C;" d="M500.87,22.261H11.13C4.983,22.261,0,17.278,0,11.13l0,0C0,4.983,4.983,0,11.13,0H500.87
	C507.017,0,512,4.983,512,11.13l0,0C512,17.278,507.017,22.261,500.87,22.261z"/>
<path style="fill:#D3C6A8;" d="M434.087,489.739L434.087,489.739c0,12.295-9.966,22.261-22.261,22.261H100.174
	c-12.295,0-22.261-9.966-22.261-22.261l0,0c0-12.295,9.966-22.261,22.261-22.261h311.652
	C424.121,467.478,434.087,477.444,434.087,489.739z"/>
<path style="fill:#6E5840;" d="M478.609,467.478H33.391V267.13h445.217V467.478z"/>
<path style="fill:#323030;" d="M500.87,478.609H11.13c-6.147,0-11.13-4.983-11.13-11.13l0,0c0-6.147,4.983-11.13,11.13-11.13H500.87
	c6.147,0,11.13,4.983,11.13,11.13l0,0C512,473.626,507.017,478.609,500.87,478.609z M512,267.13L512,267.13
	c0-6.147-4.983-11.13-11.13-11.13H11.13C4.983,256,0,260.983,0,267.13l0,0c0,6.147,4.983,11.13,11.13,11.13H500.87
	C507.017,278.261,512,273.278,512,267.13z"/>
<path style="fill:#C6984F;" d="M125.217,500.87h-22.261l38.957-166.957h22.261L125.217,500.87z M347.826,333.913h-22.261
	L286.609,500.87h22.261L347.826,333.913z"/>
<path style="fill:#AA8144;" d="M164.174,333.913h22.261l38.957,166.957H203.13L164.174,333.913z M386.783,500.87h22.261
	l-38.957-166.957h-22.261L386.783,500.87z"/>
<path style="fill:#ADA58C;" d="M208.696,356.174h-89.043c-6.147,0-11.13-4.983-11.13-11.13v-22.261c0-6.147,4.983-11.13,11.13-11.13
	h89.043c6.147,0,11.13,4.983,11.13,11.13v22.261C219.826,351.191,214.843,356.174,208.696,356.174z M403.478,345.043v-22.261
	c0-6.147-4.983-11.13-11.13-11.13h-89.043c-6.147,0-11.13,4.983-11.13,11.13v22.261c0,6.147,4.983,11.13,11.13,11.13h89.043
	C398.495,356.174,403.478,351.191,403.478,345.043z"/>
<path style="fill:#D3C6A8;" d="M108.522,322.783L108.522,322.783c0-6.147,4.983-11.13,11.13-11.13h89.043
	c6.147,0,11.13,4.983,11.13,11.13l0,0H108.522z M403.478,322.783L403.478,322.783c0-6.147-4.983-11.13-11.13-11.13h-89.043
	c-6.147,0-11.13,4.983-11.13,11.13l0,0H403.478z"/>
<path style="fill:#92393C;" d="M66.783,256c0,6.147-4.983,11.13-11.13,11.13h-11.13c-6.147,0-11.13-4.983-11.13-11.13v-33.391
	h33.391V256z"/>
<path style="fill:#DB6D53;" d="M50.087,256L50.087,256c-3.073,0-5.565-2.492-5.565-5.565v-27.826h11.13v27.826
	C55.652,253.508,53.16,256,50.087,256z"/>
<path style="fill:#C6984F;" d="M178.087,250.435v11.13c0,3.073-2.492,5.565-5.565,5.565h-66.783c-3.073,0-5.565-2.492-5.565-5.565
	v-11.13c0-3.073,2.492-5.565,5.565-5.565h66.783C175.595,244.87,178.087,247.362,178.087,250.435z"/>
<path style="fill:#AA8144;" d="M178.087,250.435V256h-77.913v-5.565c0-3.073,2.492-5.565,5.565-5.565h66.783
	C175.595,244.87,178.087,247.362,178.087,250.435z"/>
<g>
</g>
<g>
</g>
<g>
</g>
<g>
</g>
<g>
</g>
<g>
</g>
<g>
</g>
<g>
</g>
<g>
</g>
<g>
</g>
<g>
</g>
<g>
</g>
<g>
</g>
<g>
</g>
<g>
</g>
</svg>
