<?xml version="1.0" encoding="iso-8859-1"?>
<!-- Generator: Adobe Illustrator 19.0.0, SVG Export Plug-In . SVG Version: 6.00 Build 0)  -->
<svg version="1.1" id="Layer_1" xmlns="http://www.w3.org/2000/svg" xmlns:xlink="http://www.w3.org/1999/xlink" x="0px" y="0px"
	 viewBox="0 0 496 496" style="enable-background:new 0 0 496 496;" xml:space="preserve">
<path style="fill:#996632;" d="M264,465.6c-4,4-10.4,6.4-16,6.4c-0.8,0-1.6,0-2.4,0c-12-1.6-21.6-12.8-21.6-25.6v-84
	c0-32-26.4-58.4-58.4-58.4h-2.4c-14.4,0-26.4-12-26.4-26.4V256h224v21.6c0,14.4-12,26.4-26.4,26.4H332c-32,0-58.4,26.4-58.4,58.4
	V448C272,454.4,268.8,461.6,264,465.6z M264,448c0-8.8-7.2-16-16-16c-8.8,0-16,7.2-16,16s7.2,16,16,16C256.8,464,264,456.8,264,448z
	"/>
<path style="fill:#D9CDC1;" d="M364,232c6.4,0,12-5.6,12-12v-24c0-6.4-5.6-12-12-12h20h4c6.4,0,12,5.6,12,12v24c0,6.4-5.6,12-12,12
	h-12H364z"/>
<circle style="fill:#42210B;" cx="328" cy="208" r="16"/>
<path style="fill:#CC9966;" d="M296,80c0-8.8,7.2-16,16-16s16,7.2,16,16v40c0,17.6,14.4,32,32,32c5.6,0,11.2-1.6,16-4.8V168h-91.2
	c6.4-5.6,11.2-14.4,11.2-24V80z"/>
<g>
	<circle style="fill:#42210B;" cx="248" cy="448" r="16"/>
	<circle style="fill:#42210B;" cx="248" cy="208" r="16"/>
</g>
<path style="fill:#FFF8EF;" d="M248,192c-8.8,0-16,7.2-16,16s7.2,16,16,16c8.8,0,16-7.2,16-16S256.8,192,248,192z M364,184
	c6.4,0,12,5.6,12,12v24c0,6.4-5.6,12-12,12H168c17.6,0,32-14.4,32-32v-16H364z M328,224c8.8,0,16-7.2,16-16s-7.2-16-16-16
	s-16,7.2-16,16S319.2,224,328,224z"/>
<path style="fill:#CC9966;" d="M200,80c0-8.8,7.2-16,16-16s16,7.2,16,16v64c0,9.6,4,18.4,11.2,24H200V80z"/>
<path style="fill:#FF6600;" d="M360,136c-8.8,0-16-7.2-16-16V80c0-17.6-14.4-32-32-32s-32,14.4-32,32v64c0,8.8-7.2,16-16,16
	s-16-7.2-16-16V80c0-17.6-14.4-32-32-32s-32,14.4-32,32v120c0,8.8-7.2,16-16,16s-16-7.2-16-16V96c0-19.2-13.6-35.2-32-39.2V56
	c0-22.4,17.6-40,40-40h176c22.4,0,40,17.6,40,40v64C376,128.8,368.8,136,360,136z"/>
<path style="fill:#FF7D00;" d="M168,208c-4.8,0-8-3.2-8-8V96c0-20-12.8-38.4-31.2-44.8C131.2,35.2,144,24,160,24h176
	c17.6,0,32,14.4,32,32v64c0,4.8-3.2,8-8,8s-8-3.2-8-8V80c0-22.4-17.6-40-40-40s-40,17.6-40,40v64c0,4.8-3.2,8-8,8s-8-3.2-8-8V80
	c0-22.4-17.6-40-40-40s-40,17.6-40,40v120C176,204.8,172.8,208,168,208z"/>
<path style="fill:#CC9966;" d="M136,96v72h-16V73.6C129.6,76.8,136,85.6,136,96z"/>
<path style="fill:#FFF8EF;" d="M136,200c0,17.6,13.6,32,31.2,32h-34.4c-6.4,0-12-5.6-12-12v-24c0-6.4,5.6-12,12-12h3.2V200z"/>
<path style="fill:#875426;" d="M165.6,304c32,0,58.4,26.4,58.4,58.4v84c0,12.8,9.6,24,21.6,25.6c0.8,0,1.6,0,2.4,0
	c6.4,0,12-2.4,16-6.4c4.8-4.8,8-11.2,8-17.6v-85.6c0-32,26.4-58.4,58.4-58.4h2.4c14.4,0,26.4-12,26.4-26.4V256H136v21.6
	c0,14.4,12,26.4,26.4,26.4H165.6z M244.8,480c-16-1.6-28.8-16-28.8-33.6v-84c0-28-22.4-50.4-50.4-50.4h-2.4
	c-19.2,0-34.4-15.2-34.4-34.4V248h240v29.6c0,19.2-15.2,34.4-34.4,34.4H332c-28,0-50.4,22.4-50.4,50.4V448c0,8.8-4,17.6-10.4,24
	C262.4,477.6,253.6,480.8,244.8,480z"/>
<path style="fill:#D9CDC1;" d="M120.8,220c0,6.4,5.6,12,12,12H120h-12c-6.4,0-12-5.6-12-12v-24c0-6.4,5.6-12,12-12h4h20.8
	c-6.4,0-12,5.6-12,12V220z"/>
<path style="fill:#42210B;" d="M136,96c0-10.4-6.4-19.2-16-22.4V168h16V96z M165.6,312c28,0,50.4,22.4,50.4,50.4v84
	c0,17.6,12.8,32,28.8,33.6c8.8,0.8,17.6-2.4,24.8-8c6.4-6.4,10.4-14.4,10.4-24v-85.6c0-28,22.4-50.4,50.4-50.4h2.4
	c19.2,0,34.4-15.2,34.4-34.4V248H128v29.6c0,19.2,15.2,34.4,34.4,34.4H165.6z M243.2,168c-6.4-5.6-11.2-14.4-11.2-24V80
	c0-8.8-7.2-16-16-16s-16,7.2-16,16v88H243.2z M200,200c0,17.6-14.4,32-32,32h196h12h12c6.4,0,12-5.6,12-12v-24c0-6.4-5.6-12-12-12
	h-4h-20H200V200z M330.4,328c-19.2,0-34.4,15.2-34.4,34.4V448c0,13.6-5.6,26.4-16,35.2c-8.8,8-20.8,12.8-32.8,12.8
	c-1.6,0-3.2,0-4.8,0c-24-2.4-43.2-24-43.2-49.6v-84c0-19.2-15.2-34.4-34.4-34.4h-2.4c-28,0-50.4-22.4-50.4-50.4V248h-4
	c-15.2,0-28-12.8-28-28v-24c0-14.4,10.4-25.6,24-27.2V56c0-31.2,24.8-56,56-56h176c31.2,0,56,24.8,56,56v112
	c13.6,1.6,24,13.6,24,27.2v24c0,15.2-12.8,28-28,28h-4v29.6c0,28-22.4,50.4-50.4,50.4h-3.2V328z M296,144c0,9.6-4,18.4-11.2,24H376
	v-20.8c-4.8,3.2-10.4,4.8-16,4.8c-17.6,0-32-14.4-32-32V80c0-8.8-7.2-16-16-16s-16,7.2-16,16V144z M120,232h12.8h34.4
	c-17.6,0-31.2-14.4-31.2-32v-16h-3.2H112h-4c-6.4,0-12,5.6-12,12v24c0,6.4,5.6,12,12,12H120z M280,80c0-17.6,14.4-32,32-32
	s32,14.4,32,32v40c0,8.8,7.2,16,16,16s16-7.2,16-16V56c0-22.4-17.6-40-40-40H160c-22.4,0-40,17.6-40,40v0.8c18.4,4,32,20,32,39.2
	v104c0,8.8,7.2,16,16,16s16-7.2,16-16V80c0-17.6,14.4-32,32-32s32,14.4,32,32v64c0,8.8,7.2,16,16,16s16-7.2,16-16V80z"/>
<g>
</g>
<g>
</g>
<g>
</g>
<g>
</g>
<g>
</g>
<g>
</g>
<g>
</g>
<g>
</g>
<g>
</g>
<g>
</g>
<g>
</g>
<g>
</g>
<g>
</g>
<g>
</g>
<g>
</g>
</svg>
